<?xml version="1.0" encoding="utf-8"?>
<!-- Generator: Adobe Illustrator 23.0.3, SVG Export Plug-In . SVG Version: 6.00 Build 0)  -->
<svg version="1.1" id="Layer_1" xmlns="http://www.w3.org/2000/svg" xmlns:xlink="http://www.w3.org/1999/xlink" x="0px" y="0px"
	 viewBox="0 0 3415 597.8" style="enable-background:new 0 0 3415 597.8;" xml:space="preserve">
<style type="text/css">
	.st0{fill:#FFFFFF;}
</style>
<g id="on_black">
	<path class="st0" d="M92.4,594.5c-51-0.1-92.3-41.4-92.4-92.4v-82.6h101v59c0,12.7,10.3,23,23,23l0,0h160c12.7,0,23-10.3,23-23l0,0
		v-72.3c0-24.1-11.2-30.9-34.7-36.3l-156-33.6c-39.5-8.5-66.3-20-84.3-36.2C11.8,282,2,256.9,2,223.4V115.9
		c0.1-51,41.4-92.3,92.4-92.4h215.2c51,0.1,92.3,41.4,92.4,92.4v75.6H301v-52c0-12.7-10.3-23-23-23l0,0H130c-12.7,0-23,10.3-23,23
		l0,0V205c0,24.1,11.2,30.9,34.7,36.3l156,33.6c39.5,8.5,66.3,20,84.3,36.2c20.2,18.1,30,43.2,30,76.7v114.3
		c-0.1,51-41.4,92.3-92.4,92.4H92.4z"/>
	 <line x1="0" y1="0" x2="90" y2="0" stroke="black" />
</g>
</svg>
